<svg width="419" height="290" viewBox="0 0 419 290" fill="none" xmlns="http://www.w3.org/2000/svg">
<g id="#&#236;&#149;&#132;&#236;&#157;&#180;&#236;&#189;&#152;01&#62;&#237;&#153;&#136;">
<g id="&#236;&#160;&#156;&#236;&#163;&#188;&#62;&#237;&#153;&#136;">
<foreignObject x="-1538.48" y="-192.799" width="2171.6" height="977.599"><div xmlns="http://www.w3.org/1999/xhtml" style="backdrop-filter:blur(42.9px);clip-path:url(#bgblur_0_4402_91500_clip_path);height:100%;width:100%"></div></foreignObject><g id="&#234;&#179;&#181;&#236;&#167;&#128;" data-figma-bg-blur-radius="85.7994">
<rect x="-1452.68" y="-107" width="2000" height="806" rx="45" fill="#6C5A46" fill-opacity="0.1"/>
<foreignObject x="-293.475" y="-124.799" width="836.599" height="576.599"><div xmlns="http://www.w3.org/1999/xhtml" style="backdrop-filter:blur(42.9px);clip-path:url(#bgblur_1_4402_91500_clip_path);height:100%;width:100%"></div></foreignObject><g id="Frame 2085666873" data-figma-bg-blur-radius="85.7994">
<rect x="-207.676" y="-39" width="665" height="405" rx="45" fill="white" fill-opacity="0.5"/>
<g id="Frame 27">
<g id="Group 119">
<ellipse id="Ellipse 16" cx="314.168" cy="106.842" rx="104.722" ry="106.842" fill="url(#paint0_radial_4402_91500)"/>
<path id="Union" d="M206.532 61.043C250.173 61.043 287.656 89.4909 303.935 130.142C343.304 134.283 374.015 168.389 374.015 209.85C374.015 254.105 339.025 289.98 295.863 289.98C295.86 289.98 295.857 289.979 295.854 289.979V289.983H207.218C206.989 289.985 206.761 289.988 206.532 289.988C206.304 289.988 206.075 289.985 205.847 289.983H85.209C84.7185 289.992 84.2269 289.998 83.7344 289.998C37.4894 289.998 0 251.56 0 204.144C0 156.727 37.4894 118.289 83.7344 118.289C93.6914 118.289 103.242 120.072 112.101 123.342C129.68 86.3533 165.367 61.043 206.532 61.043Z" fill="url(#paint1_radial_4402_91500)"/>
</g>
</g>
</g>
</g>
</g>
</g>
<defs>
<clipPath id="bgblur_0_4402_91500_clip_path" transform="translate(1538.48 192.799)"><rect x="-1452.68" y="-107" width="2000" height="806" rx="45"/>
</clipPath><clipPath id="bgblur_1_4402_91500_clip_path" transform="translate(293.475 124.799)"><rect x="-207.676" y="-39" width="665" height="405" rx="45"/>
</clipPath><radialGradient id="paint0_radial_4402_91500" cx="0" cy="0" r="1" gradientTransform="matrix(117.813 146.908 -143.993 120.197 287.987 66.7762)" gradientUnits="userSpaceOnUse">
<stop stop-color="#FFD18B"/>
<stop offset="1" stop-color="#FFA41D"/>
</radialGradient>
<radialGradient id="paint1_radial_4402_91500" cx="0" cy="0" r="1" gradientUnits="userSpaceOnUse" gradientTransform="translate(170.26 121.144) rotate(90) scale(168.854 275.836)">
<stop stop-color="#FCFDFF"/>
<stop offset="1" stop-color="#E3E9F1"/>
</radialGradient>
</defs>
</svg>
